<svg version="1.1" viewBox="0 0 256 256" xmlns="http://www.w3.org/2000/svg">
 <path d="m214 127.83q0-4.5-3-7.5l-75.5-75.5q-3-3-7.5-3t-7.5 3l-75.5 75.5q-3 3-3 7.5t3 7.5l15.167 15.167q3 3 7.5 3t7.5-3l31.5-31.5v83.667q0 4.3333 3.1667 7.5 3.1667 3.1667 7.5 3.1667h21.333q4.3333 0 7.5-3.1667t3.1667-7.5v-83.667l31.5 31.5q3.1667 3.1667 7.5 3.1667 4.3333 0 7.5-3.1667l15.167-15.167q3-3 3-7.5zm42 0.16666q0 34.833-17.167 64.25-17.167 29.417-46.583 46.583-29.417 17.167-64.25 17.167-34.833 0-64.25-17.167-29.417-17.167-46.583-46.583-17.167-29.417-17.167-64.25 0-34.833 17.167-64.25 17.167-29.417 46.583-46.583 29.417-17.167 64.25-17.167 34.833 0 64.25 17.167 29.417 17.167 46.583 46.583 17.167 29.417 17.167 64.25z" style="fill:#0766d5"/>
</svg>
